<?xml version="1.0" encoding="utf-8"?>
<!-- Generator: Adobe Illustrator 25.1.0, SVG Export Plug-In . SVG Version: 6.00 Build 0)  -->
<svg version="1.1" id="레이어_1" xmlns="http://www.w3.org/2000/svg" xmlns:xlink="http://www.w3.org/1999/xlink" x="0px"
	 y="0px" viewBox="0 0 1440 900" style="enable-background:new 0 0 1440 900;" xml:space="preserve">
<style type="text/css">
	.st0{fill:none;stroke:#000000;stroke-miterlimit:10;}
	.st1{font-family:'Helvetica-Bold';}
	.st2{font-size:30.8821px;}
	.st3{fill:none;stroke:#000000;stroke-width:2;stroke-miterlimit:10;}
	.st4{fill:none;}
</style>
<rect x="101.29" y="77.84" class="st0" width="369.84" height="93.69"/>
<rect x="971.16" y="77.84" class="st0" width="369.84" height="93.69"/>
<text transform="matrix(1 0 0 1 232.9949 134.1104)" class="st1 st2">Facade</text>
<text transform="matrix(1 0 0 1 1137.3599 329.1858)" class="st1 st2">Subsystem</text>
<text transform="matrix(1 0 0 1 1113.187 135.8462)" class="st1 st2">Client</text>
<g>
	<g>
		<line class="st3" x1="971.16" y1="124.69" x2="473.36" y2="124.69"/>
		<g>
			<polygon points="480.16,116.14 481.55,117.67 474.15,124.68 481.55,131.71 480.16,133.24 471.13,124.68 			"/>
		</g>
	</g>
</g>
<rect x="618.24" y="454" class="st0" width="287.42" height="72.81"/>
<rect x="373.49" y="549" class="st0" width="287.42" height="72.81"/>
<rect x="101.29" y="274" class="st0" width="1239.71" height="560"/>
<rect x="160.29" y="661" class="st0" width="287.42" height="72.81"/>
<rect x="750.29" y="656" class="st0" width="287.42" height="72.81"/>
<rect x="1004.53" y="400.4" class="st0" width="287.42" height="72.81"/>
<g>
	<g>
		<line class="st3" x1="286.21" y1="646.65" x2="286.21" y2="171.53"/>
		<g>
			<polygon points="296.18,643.73 286.21,661 276.24,643.73 			"/>
		</g>
	</g>
</g>
<g>
	<g>
		<line class="st3" x1="509.71" y1="536.76" x2="286.21" y2="171.53"/>
		<g>
			<polygon points="516.69,529.06 517.2,549 499.68,539.47 			"/>
		</g>
	</g>
</g>
<g>
	<g>
		<line class="st3" x1="748.53" y1="446.66" x2="286.21" y2="171.53"/>
		<g>
			<polygon points="751.12,436.6 760.86,454 740.93,453.74 			"/>
		</g>
	</g>
</g>
<g>
	<g>
		<line class="st3" x1="882.78" y1="647.05" x2="286.21" y2="171.53"/>
		<g>
			<polygon points="886.71,637.44 894,656 874.28,653.03 			"/>
		</g>
	</g>
</g>
<g>
	<g>
		<line class="st3" x1="1161.21" y1="396.83" x2="286.21" y2="171.53"/>
		<g>
			<polygon points="1160.88,386.44 1175.11,400.4 1155.9,405.76 			"/>
		</g>
	</g>
</g>
</svg>
