<?xml version="1.0" encoding="utf-8"?>
<!-- Generator: Adobe Illustrator 25.1.0, SVG Export Plug-In . SVG Version: 6.00 Build 0)  -->
<svg version="1.1" id="레이어_1" xmlns="http://www.w3.org/2000/svg" xmlns:xlink="http://www.w3.org/1999/xlink" x="0px"
	 y="0px" viewBox="0 0 1440 900" style="enable-background:new 0 0 1440 900;" xml:space="preserve">
<style type="text/css">
	.st0{fill:#FFFFFF;}
	.st1{font-family:'Helvetica-Bold';}
	.st2{font-size:60px;}
	.st3{fill:#FF0000;}
	.st4{fill:none;stroke:#000000;stroke-width:3;stroke-miterlimit:10;}
</style>
<g>
	<g>
		<rect x="68.51" y="64.1" class="st0" width="332.3" height="188.48"/>
		<path d="M400.31,64.6v187.48H69.01V64.6H400.31 M401.31,63.6H68.01v189.48h333.3V63.6L401.31,63.6z"/>
	</g>
	<g>
		<rect x="68.51" y="647.42" class="st0" width="332.3" height="188.48"/>
		<path d="M400.31,647.92V835.4H69.01V647.92H400.31 M401.31,646.92H68.01V836.4h333.3V646.92L401.31,646.92z"/>
	</g>
	<text transform="matrix(1 0 0 1 120.1272 181.9838)" class="st1 st2">ObjectA</text>
	<text transform="matrix(1 0 0 1 119.6441 765.2972)" class="st1 st2">ObjectB</text>
	<g>
		<rect x="1039.19" y="647.42" class="st0" width="332.3" height="188.48"/>
		<path d="M1370.99,647.92V835.4h-331.3V647.92H1370.99 M1371.99,646.92h-333.3V836.4h333.3V646.92L1371.99,646.92z"/>
	</g>
	<text transform="matrix(1 0 0 1 1090.3171 765.2972)" class="st1 st2">ObjectD</text>
	<g>
		<rect x="1039.19" y="64.1" class="st0" width="332.3" height="188.48"/>
		<path d="M1370.99,64.6v187.48h-331.3V64.6H1370.99 M1371.99,63.6h-333.3v189.48h333.3V63.6L1371.99,63.6z"/>
	</g>
	<text transform="matrix(1 0 0 1 1090.3171 181.9838)" class="st1 st2">ObjectC</text>
	<g>
		<path class="st0" d="M587.93,538.74c-15.76,0-28.57-12.82-28.57-28.58V389.83c0-15.76,12.82-28.58,28.57-28.58h264.15
			c15.76,0,28.57,12.82,28.57,28.58v120.33c0,15.76-12.82,28.58-28.57,28.58H587.93z"/>
		<path class="st3" d="M852.07,367.26c12.45,0,22.57,10.13,22.57,22.57v120.33c0,12.45-10.13,22.57-22.57,22.57H587.93
			c-12.45,0-22.57-10.13-22.57-22.57V389.83c0-12.45,10.13-22.57,22.57-22.57H852.07 M852.07,355.26H587.93
			c-19.1,0-34.57,15.48-34.57,34.57v120.33c0,19.1,15.48,34.57,34.57,34.57h264.15c19.1,0,34.57-15.48,34.57-34.57V389.83
			C886.65,370.74,871.17,355.26,852.07,355.26L852.07,355.26z"/>
	</g>
	<text transform="matrix(1 0 0 1 594.9904 472.3672)" class="st1 st2">Mediator</text>
	<g>
		<line x1="401.31" y1="253.08" x2="565.35" y2="363.66"/>
		<g>
			<line class="st4" x1="419.16" y1="265.12" x2="547.5" y2="351.62"/>
			<g>
				<polygon points="414.43,279.97 401.31,253.08 431.15,255.16 				"/>
			</g>
			<g>
				<polygon points="535.51,361.58 565.35,363.66 552.23,336.77 				"/>
			</g>
		</g>
	</g>
	<g>
		<line x1="401.31" y1="646.92" x2="565.35" y2="536.67"/>
		<g>
			<line class="st4" x1="419.18" y1="634.91" x2="547.48" y2="548.68"/>
			<g>
				<polygon points="431.16,644.88 401.31,646.92 414.47,620.05 				"/>
			</g>
			<g>
				<polygon points="552.19,563.54 565.35,536.67 535.51,538.71 				"/>
			</g>
		</g>
	</g>
	<g>
		<line x1="874.65" y1="536.67" x2="1038.69" y2="646.92"/>
		<g>
			<line class="st4" x1="892.51" y1="548.68" x2="1020.82" y2="634.91"/>
			<g>
				<polygon points="887.8,563.54 874.65,536.67 904.49,538.71 				"/>
			</g>
			<g>
				<polygon points="1008.84,644.88 1038.69,646.92 1025.53,620.05 				"/>
			</g>
		</g>
	</g>
	<g>
		<line x1="874.65" y1="363.66" x2="1038.69" y2="253.08"/>
		<g>
			<line class="st4" x1="892.5" y1="351.62" x2="1020.84" y2="265.12"/>
			<g>
				<polygon points="904.49,361.58 874.65,363.66 887.77,336.77 				"/>
			</g>
			<g>
				<polygon points="1025.57,279.97 1038.69,253.08 1008.85,255.16 				"/>
			</g>
		</g>
	</g>
</g>
</svg>
